<svg version="1.1" xmlns="http://www.w3.org/2000/svg" viewBox="0 0 1138.9931818020345 902.1364605655799" width="1138.9931818020345" height="902.1364605655799" filter="invert(93%) hue-rotate(180deg)">
  <!-- svg-source:excalidraw -->
  
  <defs>
    <style class="style-fonts">
      @font-face {
        font-family: "Virgil";
        src: url("https://excalidraw.com/Virgil.woff2");
      }
      @font-face {
        font-family: "Cascadia";
        src: url("https://excalidraw.com/Cascadia.woff2");
      }
      @font-face {
        font-family: "Assistant";
        src: url("https://excalidraw.com/Assistant-Regular.woff2");
      }
    </style>
    
  </defs>
  <g stroke-linecap="round"><g transform="translate(271.51954872409806 10.07646094088443) rotate(0 -0.24544651041730958 440.51167567201423)"><path d="M-0.04 0.64 C0.29 147.09, 0.85 733.03, 1.03 879.69 M-1.52 -0.08 C-1.31 146.48, -0.4 734.66, -0.13 881.1" stroke="#1e1e1e" stroke-width="1" fill="none"></path></g></g><mask></mask><g stroke-linecap="round" transform="translate(10 110) rotate(0 109.5 40)"><path d="M20 0 C73.51 -0.25, 129.7 -0.99, 199 0 M20 0 C62.98 -0.52, 103.13 -0.63, 199 0 M199 0 C211.45 -0.75, 218.07 5.98, 219 20 M199 0 C211.6 1.94, 218.19 5.91, 219 20 M219 20 C220.35 28.6, 220.53 35.29, 219 60 M219 20 C217.8 33.4, 218.67 44.43, 219 60 M219 60 C217.6 71.98, 211.39 80.76, 199 80 M219 60 C217.12 71.72, 212.52 79.31, 199 80 M199 80 C137.12 78.63, 75.86 80.71, 20 80 M199 80 C135.99 81.03, 73 82.25, 20 80 M20 80 C5.59 81.95, -1.47 72.28, 0 60 M20 80 C7.35 80.97, 1.59 74.36, 0 60 M0 60 C2.1 49.96, 0.11 39.56, 0 20 M0 60 C-0.1 45.37, 0.32 28.76, 0 20 M0 20 C-0.21 6.44, 5.88 0.08, 20 0 M0 20 C0.68 6.05, 7.85 1.09, 20 0" stroke="#1e1e1e" stroke-width="1" fill="none"></path></g><g transform="translate(25.060081481933594 137.5) rotate(0 94.4399185180664 12.5)"><text x="94.4399185180664" y="17.52" font-family="Virgil, Segoe UI Emoji" font-size="20px" fill="#1e1e1e" text-anchor="middle" style="white-space: pre;" direction="ltr" dominant-baseline="alphabetic">Presentation Layer</text></g><g transform="translate(10 210) rotate(0 100 71.34708705979077)"><text x="0" y="16.666679537167123" font-family="Virgil, Segoe UI Emoji" font-size="19.025889882610873px" fill="#1e1e1e" text-anchor="start" style="white-space: pre;" direction="ltr" dominant-baseline="alphabetic">- API</text><text x="0" y="40.44904189043071" font-family="Virgil, Segoe UI Emoji" font-size="19.025889882610873px" fill="#1e1e1e" text-anchor="start" style="white-space: pre;" direction="ltr" dominant-baseline="alphabetic">- Request</text><text x="0" y="64.2314042436943" font-family="Virgil, Segoe UI Emoji" font-size="19.025889882610873px" fill="#1e1e1e" text-anchor="start" style="white-space: pre;" direction="ltr" dominant-baseline="alphabetic">- Response</text><text x="0" y="88.0137665969579" font-family="Virgil, Segoe UI Emoji" font-size="19.025889882610873px" fill="#1e1e1e" text-anchor="start" style="white-space: pre;" direction="ltr" dominant-baseline="alphabetic">- Contract Validation</text><text x="0" y="111.79612895022149" font-family="Virgil, Segoe UI Emoji" font-size="19.025889882610873px" fill="#1e1e1e" text-anchor="start" style="white-space: pre;" direction="ltr" dominant-baseline="alphabetic">- Middlewares</text><text x="0" y="135.57849130348507" font-family="Virgil, Segoe UI Emoji" font-size="19.025889882610873px" fill="#1e1e1e" text-anchor="start" style="white-space: pre;" direction="ltr" dominant-baseline="alphabetic"></text></g><g stroke-linecap="round" transform="translate(310 110) rotate(0 110 40)"><path d="M20 0 C67.57 2.31, 113.2 1.91, 200 0 M20 0 C59.85 -0.56, 98.66 0.62, 200 0 M200 0 C212.11 -0.87, 219.3 6.48, 220 20 M200 0 C213.1 0.32, 221.26 7.19, 220 20 M220 20 C221.73 31.62, 221.56 41.44, 220 60 M220 20 C220.37 28.24, 219.46 37.62, 220 60 M220 60 C219.3 71.36, 212.91 81.21, 200 80 M220 60 C220.22 74.76, 212.53 79.23, 200 80 M200 80 C156.42 79.17, 113.18 79.94, 20 80 M200 80 C150.52 81.22, 101.66 81.48, 20 80 M20 80 C5.54 81.85, 0.83 74.92, 0 60 M20 80 C6.19 80, -1.25 72.55, 0 60 M0 60 C-0.29 49.66, 1.05 39.62, 0 20 M0 60 C-0.26 50.63, -0.63 40.09, 0 20 M0 20 C-1.71 8.3, 5.56 -1.44, 20 0 M0 20 C-0.44 8.96, 4.48 -1.2, 20 0" stroke="#1e1e1e" stroke-width="1" fill="none"></path></g><g transform="translate(369.0200500488281 137.5) rotate(0 50.979949951171875 12.5)"><text x="50.979949951171875" y="17.52" font-family="Virgil, Segoe UI Emoji" font-size="20px" fill="#1e1e1e" text-anchor="middle" style="white-space: pre;" direction="ltr" dominant-baseline="alphabetic">Application</text></g><g transform="translate(310 210) rotate(0 109.25990295410156 62.5)"><text x="0" y="17.52" font-family="Virgil, Segoe UI Emoji" font-size="20px" fill="#1e1e1e" text-anchor="start" style="white-space: pre;" direction="ltr" dominant-baseline="alphabetic">- Business Logic</text><text x="0" y="42.519999999999996" font-family="Virgil, Segoe UI Emoji" font-size="20px" fill="#1e1e1e" text-anchor="start" style="white-space: pre;" direction="ltr" dominant-baseline="alphabetic">- Helpers / Extensions</text><text x="0" y="67.52" font-family="Virgil, Segoe UI Emoji" font-size="20px" fill="#1e1e1e" text-anchor="start" style="white-space: pre;" direction="ltr" dominant-baseline="alphabetic">- Services</text><text x="0" y="92.52" font-family="Virgil, Segoe UI Emoji" font-size="20px" fill="#1e1e1e" text-anchor="start" style="white-space: pre;" direction="ltr" dominant-baseline="alphabetic">- Authentication</text><text x="0" y="117.52" font-family="Virgil, Segoe UI Emoji" font-size="20px" fill="#1e1e1e" text-anchor="start" style="white-space: pre;" direction="ltr" dominant-baseline="alphabetic">- Mappers</text></g><g stroke-linecap="round" transform="translate(610 110) rotate(0 110 40)"><path d="M20 0 C73.95 -2.51, 127.01 1.07, 200 0 M20 0 C79.97 -1.68, 139.27 -1.16, 200 0 M200 0 C213.29 -1.6, 219.91 6.55, 220 20 M200 0 C212.39 -0.99, 221.75 5.57, 220 20 M220 20 C219.08 33.53, 220.6 45.5, 220 60 M220 20 C219.09 35.12, 220.12 48.27, 220 60 M220 60 C219.4 72.21, 213.47 79.45, 200 80 M220 60 C220.58 72.78, 211.46 78.24, 200 80 M200 80 C132.65 78.52, 62.78 79.78, 20 80 M200 80 C150.16 81.1, 100.87 80.93, 20 80 M20 80 C6.2 78.68, -0.04 71.61, 0 60 M20 80 C7.49 79.53, -2.3 71.37, 0 60 M0 60 C1.8 49.07, 2.13 38.76, 0 20 M0 60 C1.18 51.13, 0.19 42.83, 0 20 M0 20 C1.82 6.46, 5.3 -1.81, 20 0 M0 20 C-0.48 4.7, 6.07 -0.26, 20 0" stroke="#1e1e1e" stroke-width="1" fill="none"></path></g><g transform="translate(686.8000259399414 137.5) rotate(0 33.199974060058594 12.5)"><text x="33.199974060058594" y="17.52" font-family="Virgil, Segoe UI Emoji" font-size="20px" fill="#1e1e1e" text-anchor="middle" style="white-space: pre;" direction="ltr" dominant-baseline="alphabetic">Domain</text></g><g transform="translate(610 210) rotate(0 90.73992156982422 25)"><text x="0" y="17.52" font-family="Virgil, Segoe UI Emoji" font-size="20px" fill="#1e1e1e" text-anchor="start" style="white-space: pre;" direction="ltr" dominant-baseline="alphabetic">- Entity Models</text><text x="0" y="42.519999999999996" font-family="Virgil, Segoe UI Emoji" font-size="20px" fill="#1e1e1e" text-anchor="start" style="white-space: pre;" direction="ltr" dominant-baseline="alphabetic">- Entity Behaviors</text></g><g stroke-linecap="round"><g transform="translate(569.6957139596623 9.388546856166784) rotate(0 1.4788831796520299 440.37719453639346)"><path d="M1.16 1.09 C1.25 147.82, 0.52 733.77, 0.45 880.14 M0.3 0.61 C0.78 146.98, 2.76 731.52, 2.65 878.14" stroke="#1e1e1e" stroke-width="1" fill="none"></path></g></g><mask></mask><g stroke-linecap="round"><g transform="translate(870.5127305261326 11.095226942347324) rotate(0 0.960728996093394 439.9730033404426)"><path d="M0.62 -0.03 C0.58 146.42, 0.07 733.19, 0.31 879.65 M-0.51 -1.1 C-0.25 145.45, 2.08 734.29, 2.43 881.04" stroke="#1e1e1e" stroke-width="1" fill="none"></path></g></g><mask></mask><g stroke-linecap="round" transform="translate(908.9931818020345 111.0187660014629) rotate(0 110 40)"><path d="M20 0 C82.85 2.71, 144.65 1.76, 200 0 M20 0 C87.71 1.22, 158 0.93, 200 0 M200 0 C215.09 0.55, 218.27 6.35, 220 20 M200 0 C213.34 -1.35, 221.51 5.59, 220 20 M220 20 C218.22 30.29, 221.09 43.12, 220 60 M220 20 C220.61 33.94, 220.73 49.16, 220 60 M220 60 C219.85 75.31, 214.56 81.24, 200 80 M220 60 C218.51 73.64, 211.2 80.02, 200 80 M200 80 C144.1 78.12, 87.84 78.73, 20 80 M200 80 C146.3 79.07, 91.83 79.21, 20 80 M20 80 C6.07 79.14, -0.7 72.91, 0 60 M20 80 C6.29 79.06, 1.93 72.18, 0 60 M0 60 C1.92 45.33, 0.41 35.84, 0 20 M0 60 C0.65 50.82, 0.46 43.4, 0 20 M0 20 C0.3 6.54, 5.87 0.1, 20 0 M0 20 C2 8.09, 6.73 0.79, 20 0" stroke="#1e1e1e" stroke-width="1" fill="none"></path></g><g transform="translate(945.8632532131674 138.5187660014629) rotate(0 73.12992858886719 12.5)"><text x="73.12992858886719" y="17.52" font-family="Virgil, Segoe UI Emoji" font-size="20px" fill="#1e1e1e" text-anchor="middle" style="white-space: pre;" direction="ltr" dominant-baseline="alphabetic">Infrastructure</text></g><g transform="translate(908.9931818020345 210.0187660014629) rotate(0 95.04991912841797 50)"><text x="0" y="17.52" font-family="Virgil, Segoe UI Emoji" font-size="20px" fill="#1e1e1e" text-anchor="start" style="white-space: pre;" direction="ltr" dominant-baseline="alphabetic">- Database</text><text x="0" y="42.519999999999996" font-family="Virgil, Segoe UI Emoji" font-size="20px" fill="#1e1e1e" text-anchor="start" style="white-space: pre;" direction="ltr" dominant-baseline="alphabetic">- Logging</text><text x="0" y="67.52" font-family="Virgil, Segoe UI Emoji" font-size="20px" fill="#1e1e1e" text-anchor="start" style="white-space: pre;" direction="ltr" dominant-baseline="alphabetic">- External Services</text><text x="0" y="92.52" font-family="Virgil, Segoe UI Emoji" font-size="20px" fill="#1e1e1e" text-anchor="start" style="white-space: pre;" direction="ltr" dominant-baseline="alphabetic">- </text></g><g stroke-linecap="round"><g transform="translate(171.26007361928941 371.317933286177) rotate(0 99.16646758879062 -0.12180322053188775)"><path d="M0.13 1.03 C33.52 1.21, 166.18 0.8, 199.59 0.53 M-1.26 0.53 C31.99 0.39, 164.86 -1.3, 198.43 -1.32" stroke="#2f9e44" stroke-width="1" fill="none"></path></g><g transform="translate(171.26007361928941 371.317933286177) rotate(0 99.16646758879062 -0.12180322053188775)"><path d="M197.41 -1.24 L186.03 5.73 L183.96 -8.16 L196.87 0.56" stroke="none" stroke-width="0" fill="#2f9e44" fill-rule="evenodd"></path><path d="M198.43 -1.32 C196.44 -0.26, 192.55 2.55, 184.88 5.12 M198.43 -1.32 C194.52 0.77, 191.81 2.28, 184.88 5.12 M184.88 5.12 C185.93 2.28, 184.04 -2.62, 184.79 -7.56 M184.88 5.12 C184.73 3.08, 184.58 -0.43, 184.79 -7.56 M184.79 -7.56 C190.25 -6.16, 193.07 -3.84, 198.43 -1.32 M184.79 -7.56 C189.99 -5.58, 195.88 -2.56, 198.43 -1.32 M198.43 -1.32 C198.43 -1.32, 198.43 -1.32, 198.43 -1.32 M198.43 -1.32 C198.43 -1.32, 198.43 -1.32, 198.43 -1.32" stroke="#2f9e44" stroke-width="1" fill="none"></path></g></g><mask></mask><g stroke-linecap="round"><g transform="translate(470.68875605314975 430.89312172182406) rotate(0 99.82114640027282 -0.009039492349813827)"><path d="M-0.69 0.26 C32.52 0.47, 166.74 0.97, 200.33 0.86 M1.15 -0.65 C34.14 -0.73, 166.33 -1.04, 199.56 -0.81" stroke="#2f9e44" stroke-width="1" fill="none"></path></g><g transform="translate(470.68875605314975 430.89312172182406) rotate(0 99.82114640027282 -0.009039492349813827)"><path d="M198.4 -1.04 L184.48 6.02 L184.88 -7.82 L201.12 -2.01" stroke="none" stroke-width="0" fill="#2f9e44" fill-rule="evenodd"></path><path d="M199.56 -0.81 C194.58 1.97, 190.06 5.07, 185.95 5.51 M199.56 -0.81 C196.55 0.33, 192.21 2.53, 185.95 5.51 M185.95 5.51 C186.57 2.98, 186.53 -0.06, 185.97 -7.17 M185.95 5.51 C186.35 2.03, 185.9 -1.05, 185.97 -7.17 M185.97 -7.17 C188.65 -5.6, 193.7 -3.6, 199.56 -0.81 M185.97 -7.17 C190.17 -5.75, 193.29 -3.04, 199.56 -0.81 M199.56 -0.81 C199.56 -0.81, 199.56 -0.81, 199.56 -0.81 M199.56 -0.81 C199.56 -0.81, 199.56 -0.81, 199.56 -0.81" stroke="#2f9e44" stroke-width="1" fill="none"></path></g></g><mask></mask><g stroke-linecap="round"><g transform="translate(471.73170296642 490.4330169275403) rotate(0 249.3454510274389 0.22202875459100824)"><path d="M-0.18 0.49 C83.06 0.36, 417.15 -0.18, 500.42 -0.43 M-1.73 -0.29 C81.3 -0.3, 416.34 0.87, 499.7 0.88" stroke="#2f9e44" stroke-width="1" fill="none"></path></g><g transform="translate(471.73170296642 490.4330169275403) rotate(0 249.3454510274389 0.22202875459100824)"><path d="M499.99 0.98 L486.78 8.86 L485.02 -4.45 L500.05 2.82" stroke="none" stroke-width="0" fill="#2f9e44" fill-rule="evenodd"></path><path d="M499.7 0.88 C495.11 3.81, 488.73 5, 486.09 7.19 M499.7 0.88 C496.05 2.68, 493.53 2.74, 486.09 7.19 M486.09 7.19 C487.36 3.63, 487.28 0.45, 486.11 -5.49 M486.09 7.19 C485.62 3.02, 486.8 -0.8, 486.11 -5.49 M486.11 -5.49 C487.57 -4.65, 491.07 -2.51, 499.7 0.88 M486.11 -5.49 C491.7 -2.52, 496.67 -0.89, 499.7 0.88 M499.7 0.88 C499.7 0.88, 499.7 0.88, 499.7 0.88 M499.7 0.88 C499.7 0.88, 499.7 0.88, 499.7 0.88" stroke="#2f9e44" stroke-width="1" fill="none"></path></g></g><mask></mask><g stroke-linecap="round"><g transform="translate(970 450) rotate(0 -100.0574237748981 0.39377754452635827)"><path d="M0.82 0.18 C-32.86 0.13, -167.36 0.21, -200.93 0.02 M-0.22 -0.78 C-33.62 -0.64, -165.14 1.46, -198.71 1.56" stroke="#1971c2" stroke-width="1" fill="none"></path></g><g transform="translate(970 450) rotate(0 -100.0574237748981 0.39377754452635827)"><path d="M-197.48 2.53 L-185.17 -4.65 L-183.8 8.74 L-196.84 0.89" stroke="none" stroke-width="0" fill="#1971c2" fill-rule="evenodd"></path><path d="M-198.71 1.56 C-193.17 -2.24, -188.03 -4.36, -185.18 -4.91 M-198.71 1.56 C-196.03 0.35, -192.05 -0.6, -185.18 -4.91 M-185.18 -4.91 C-185.05 -0.93, -186.03 1.49, -185.05 7.76 M-185.18 -4.91 C-185 -1.01, -185.01 3.21, -185.05 7.76 M-185.05 7.76 C-188.84 5.47, -195.86 3.83, -198.71 1.56 M-185.05 7.76 C-188.61 5.6, -191.52 4.63, -198.71 1.56 M-198.71 1.56 C-198.71 1.56, -198.71 1.56, -198.71 1.56 M-198.71 1.56 C-198.71 1.56, -198.71 1.56, -198.71 1.56" stroke="#1971c2" stroke-width="1" fill="none"></path></g></g><mask></mask><g stroke-linecap="round"><g transform="translate(970.8251298591495 511.32311828840534) rotate(0 -250.01990246027708 -0.37121848217969955)"><path d="M0.79 0.42 C-82.65 0.38, -417.45 0.66, -500.83 0.56 M-0.26 -0.4 C-83.29 -0.87, -415.27 -1.51, -498.55 -1.27" stroke="#1971c2" stroke-width="1" fill="none"></path></g><g transform="translate(970.8251298591495 511.32311828840534) rotate(0 -250.01990246027708 -0.37121848217969955)"><path d="M-497.1 -1.35 L-483.24 -8.42 L-485.1 6.96 L-499.31 -1.11" stroke="none" stroke-width="0" fill="#1971c2" fill-rule="evenodd"></path><path d="M-498.55 -1.27 C-494.25 -4.17, -490.26 -4.24, -484.95 -7.61 M-498.55 -1.27 C-494.44 -3.23, -491.34 -4.23, -484.95 -7.61 M-484.95 -7.61 C-485.55 -4.77, -484.94 -1.07, -484.95 5.07 M-484.95 -7.61 C-484.63 -4.46, -485.42 -1.94, -484.95 5.07 M-484.95 5.07 C-487.93 2.16, -491.56 2.27, -498.55 -1.27 M-484.95 5.07 C-489.32 2.81, -493.7 1.3, -498.55 -1.27 M-498.55 -1.27 C-498.55 -1.27, -498.55 -1.27, -498.55 -1.27 M-498.55 -1.27 C-498.55 -1.27, -498.55 -1.27, -498.55 -1.27" stroke="#1971c2" stroke-width="1" fill="none"></path></g></g><mask></mask><g stroke-linecap="round"><g transform="translate(769.6947130736987 431.3020406442107) rotate(0 100.25684279291431 0.02158942041597811)"><path d="M1.16 -0.83 C34.66 -1.08, 167.19 -1.51, 200.21 -1.19 M0.31 1.35 C33.74 1.17, 165.79 0.06, 199.37 -0.27" stroke="#2f9e44" stroke-width="1" fill="none"></path></g><g transform="translate(769.6947130736987 431.3020406442107) rotate(0 100.25684279291431 0.02158942041597811)"><path d="M201.26 -1.62 L186.6 6.95 L186.48 -7.48 L200.21 -1.31" stroke="none" stroke-width="0" fill="#2f9e44" fill-rule="evenodd"></path><path d="M199.37 -0.27 C195.2 1.62, 191.61 1.96, 185.83 6.19 M199.37 -0.27 C194.23 2.75, 189.24 4.32, 185.83 6.19 M185.83 6.19 C186.64 0.25, 186.33 -3.32, 185.72 -6.49 M185.83 6.19 C186.01 2.01, 186.09 -3.15, 185.72 -6.49 M185.72 -6.49 C189.29 -5.34, 191.29 -4.13, 199.37 -0.27 M185.72 -6.49 C190.29 -3.68, 195.47 -2.52, 199.37 -0.27 M199.37 -0.27 C199.37 -0.27, 199.37 -0.27, 199.37 -0.27 M199.37 -0.27 C199.37 -0.27, 199.37 -0.27, 199.37 -0.27" stroke="#2f9e44" stroke-width="1" fill="none"></path></g></g><mask></mask><g stroke-linecap="round"><g transform="translate(669.8131912453007 450.7946019098629) rotate(0 -99.76340948631525 0.5103272981475584)"><path d="M0.29 -0.52 C-32.81 -0.48, -166.02 0.7, -199.26 0.87 M-1.02 1.82 C-34.15 1.48, -166.75 -0.22, -199.81 -0.79" stroke="#1971c2" stroke-width="1" fill="none"></path></g><g transform="translate(669.8131912453007 450.7946019098629) rotate(0 -99.76340948631525 0.5103272981475584)"><path d="M-198.05 1.17 L-186.24 -6.03 L-184.48 5.44 L-200.39 -1.56" stroke="none" stroke-width="0" fill="#1971c2" fill-rule="evenodd"></path><path d="M-199.81 -0.79 C-197.18 -1.38, -192.12 -2.71, -186.13 -6.93 M-199.81 -0.79 C-195.33 -3.44, -189.92 -4.27, -186.13 -6.93 M-186.13 -6.93 C-185.64 -4.61, -185.64 -1.69, -186.31 5.74 M-186.13 -6.93 C-185.75 -2.95, -186.3 0.06, -186.31 5.74 M-186.31 5.74 C-190.94 3.47, -193.81 1.19, -199.81 -0.79 M-186.31 5.74 C-191.28 3.66, -195.83 1.45, -199.81 -0.79 M-199.81 -0.79 C-199.81 -0.79, -199.81 -0.79, -199.81 -0.79 M-199.81 -0.79 C-199.81 -0.79, -199.81 -0.79, -199.81 -0.79" stroke="#1971c2" stroke-width="1" fill="none"></path></g></g><mask></mask><g stroke-linecap="round"><g transform="translate(371.0689244294447 390.60325237351265) rotate(0 -100.54855323778008 0.013904027343016878)"><path d="M-0.03 0.42 C-33.56 0.35, -166.83 -0.7, -200.08 -0.6 M-1.5 -0.4 C-35.3 -0.31, -167.98 0.68, -201.07 0.63" stroke="#1971c2" stroke-width="1" fill="none"></path></g><g transform="translate(371.0689244294447 390.60325237351265) rotate(0 -100.54855323778008 0.013904027343016878)"><path d="M-200.71 -1.12 L-187.18 -3.87 L-188.9 5.25 L-202.8 -0.26" stroke="none" stroke-width="0" fill="#1971c2" fill-rule="evenodd"></path><path d="M-201.07 0.63 C-195.18 -1.98, -191.11 -3.8, -187.5 -5.76 M-201.07 0.63 C-195.52 -1.15, -190.71 -4.54, -187.5 -5.76 M-187.5 -5.76 C-187.54 -2.69, -188.35 1.2, -187.45 6.92 M-187.5 -5.76 C-187.88 -1.51, -188.12 2.3, -187.45 6.92 M-187.45 6.92 C-192.23 4.49, -196.02 3.85, -201.07 0.63 M-187.45 6.92 C-192.21 5.13, -196.28 2.75, -201.07 0.63 M-201.07 0.63 C-201.07 0.63, -201.07 0.63, -201.07 0.63 M-201.07 0.63 C-201.07 0.63, -201.07 0.63, -201.07 0.63" stroke="#1971c2" stroke-width="1" fill="none"></path></g></g><mask></mask></svg>